<svg xmlns="http://www.w3.org/2000/svg" width="500" height="500" viewBox="0 0 500 500" version="1.1"><path d="M 119 246 L 119 293 128 293 L 137 293 137 246 L 137 199 128 199 L 119 199 119 246 M 22 246.500 L 22 293 31.500 293 L 41 293 41 271.500 L 41 250 49.500 250 L 58 250 58 241.500 L 58 233 49.500 233 L 41 233 41 225 L 41 217 50 217 L 59 217 59 208.500 L 59 200 40.500 200 L 22 200 22 246.500 M 77.500 214.502 C 72.356 216.321, 67.428 221.696, 65.982 227.065 C 65.234 229.844, 64.957 239.374, 65.174 254.896 C 65.483 276.970, 65.647 278.767, 67.708 282.624 C 72.135 290.907, 77.739 293.627, 89.778 293.337 C 103.834 292.998, 110.083 286.297, 110.825 270.768 L 111.245 262 102.122 262 L 93 262 93 268.566 C 93 276.239, 91.832 279, 88.587 279 C 84.735 279, 83.820 276.687, 83.250 265.519 L 82.713 255 96.856 255 L 111 255 110.978 241.250 C 110.949 223.089, 108.975 218.394, 99.746 214.538 C 95.121 212.606, 82.919 212.586, 77.500 214.502 M 85.681 227.462 C 83.866 229.277, 82.707 235.765, 83.174 241.500 L 83.500 245.500 88 245.500 L 92.500 245.500 92.757 238.500 C 93.124 228.477, 89.820 223.323, 85.681 227.462" stroke="none" fill="#040404" fill-rule="evenodd"/><path d="M 118.240 245.750 L 118.480 293.500 118.750 246.250 L 119.020 199 128 199 L 136.980 199 137.250 246.250 L 137.520 293.500 137.760 245.750 L 138 198 128 198 L 118 198 118.240 245.750 M 382 245.464 L 382 293 392.010 293 L 402.020 293 401.760 245.750 L 401.500 198.500 391.750 198.214 L 382 197.928 382 245.464 M 40.250 199.749 L 59 200.044 59 208.485 L 59 216.925 49.750 217.255 L 40.500 217.585 50.250 217.792 L 60 218 60 208.500 L 60 199 40.750 199.227 L 21.500 199.453 40.250 199.749 M 142 208.500 L 142 218 147.500 218 L 153 218 153 255.500 L 153 293 163 293 L 173 293 173 255.500 L 173 218 178.500 218 L 184 218 184 208.500 L 184 199 163 199 L 142 199 142 208.500 M 84.728 212.722 C 86.503 212.943, 89.653 212.946, 91.728 212.730 C 93.802 212.513, 92.350 212.333, 88.500 212.328 C 84.650 212.324, 82.952 212.501, 84.728 212.722 M 214.378 213.437 C 212.661 214.184, 210.524 215.842, 209.628 217.120 L 208 219.445 208 216.223 L 208 213 198 213 L 188 213 188 253 L 188 293 198 293 L 208 293 208 262.040 L 208 231.080 211.750 230.047 C 213.813 229.479, 216.850 228.898, 218.500 228.757 L 221.500 228.500 221.790 220.250 C 222.073 212.224, 222.019 212.001, 219.790 212.039 C 218.531 212.061, 216.095 212.690, 214.378 213.437 M 239.431 212.881 C 230.914 215.080, 226.403 220.852, 225.353 230.894 L 224.715 237 234.858 237 L 245 237 245 233.122 C 245 228.915, 246.810 226.606, 249.346 227.579 C 251.166 228.278, 252.310 233.056, 251.827 237.943 C 251.516 241.086, 251.125 241.383, 243.982 243.898 C 233.410 247.620, 229.869 249.946, 227 255.051 C 224.754 259.047, 224.500 260.620, 224.500 270.500 C 224.500 279.950, 224.823 282.156, 226.794 286.157 C 229.507 291.665, 233.589 294, 240.501 294 C 244.512 294, 245.698 293.502, 248.600 290.600 L 252 287.200 252 290.100 L 252 293 262.049 293 L 272.099 293 271.799 259.250 C 271.503 225.868, 271.475 225.459, 269.163 221.741 C 265.457 215.781, 259.212 212.709, 250.117 212.371 C 245.928 212.216, 241.119 212.445, 239.431 212.881 M 343.942 212.889 C 336.303 215.383, 331.595 219.694, 329.446 226.162 C 328.110 230.184, 327.895 234.928, 328.171 254.251 C 328.476 275.568, 328.683 277.889, 330.665 282.181 C 334.551 290.596, 340.102 293.800, 351 293.918 C 359.363 294.009, 364.228 292.617, 368.424 288.933 C 372.832 285.063, 374.794 279.911, 375.616 270.048 L 376.288 262 366.144 262 L 356 262 356 268.566 C 356 275.956, 354.833 279, 352 279 C 348.916 279, 348 275.810, 348 265.066 L 348 255 362.096 255 L 376.192 255 375.846 241.250 C 375.544 229.267, 375.198 226.888, 373.154 222.736 C 369.750 215.824, 364.108 212.747, 354.117 212.354 C 349.928 212.189, 345.349 212.430, 343.942 212.889 M 422.994 212.876 C 410.837 216.858, 405.436 225.589, 407.812 237.420 C 409.259 244.622, 411.354 247.546, 419.766 254.100 C 430.980 262.839, 433.807 265.900, 434.511 270.065 C 435.310 274.793, 433.718 278, 430.572 278 C 427.632 278, 427 276.392, 427 268.918 L 427 263 416.875 263 L 406.749 263 407.187 271.342 C 407.546 278.173, 408.129 280.545, 410.407 284.432 C 414.116 290.761, 420.716 293.979, 430 293.985 C 438.556 293.990, 443.265 292.584, 447.684 288.704 C 452.793 284.218, 454.952 278.896, 454.978 270.718 C 455.016 259.034, 451.573 253.513, 437.946 243.405 C 432.977 239.720, 428.482 235.901, 427.956 234.918 C 425.586 230.490, 428.369 226.057, 432.224 228.120 C 433.467 228.785, 434 230.261, 434 233.035 L 434 237 444.639 237 L 455.279 237 454.673 231.885 C 453.145 218.982, 446.407 212.877, 433.117 212.354 C 428.928 212.189, 424.372 212.424, 422.994 212.876 M 276.198 215.750 C 276.432 217.262, 279.295 235.262, 282.561 255.748 L 288.500 292.996 300 292.998 L 311.501 293 317.798 253.750 C 321.261 232.162, 324.073 214.146, 324.047 213.714 C 324.021 213.281, 319.613 213.056, 314.250 213.214 L 304.500 213.500 302.438 232.729 C 301.304 243.304, 300.160 252.173, 299.896 252.438 C 299.631 252.702, 298.585 243.937, 297.571 232.959 L 295.727 213 285.750 213 L 275.773 213 276.198 215.750 M 349.035 228.934 C 348.466 229.998, 348 234.048, 348 237.934 L 348 245 352 245 L 356 245 356 237.934 C 356 230.067, 354.878 227, 352 227 C 350.939 227, 349.605 227.870, 349.035 228.934 M 111.392 242 C 111.392 249.425, 111.549 252.463, 111.742 248.750 C 111.934 245.037, 111.934 238.963, 111.742 235.250 C 111.549 231.537, 111.392 234.575, 111.392 242 M 64.423 251.500 C 64.424 263.050, 64.570 267.638, 64.747 261.696 C 64.924 255.753, 64.923 246.303, 64.745 240.696 C 64.567 235.088, 64.422 239.950, 64.423 251.500 M 92.193 237.750 L 92 245 88.048 245 L 84.095 245 83.713 238.750 L 83.331 232.500 83.416 239 L 83.500 245.500 87.759 245.808 C 92.894 246.179, 93.231 245.575, 92.744 236.895 L 92.385 230.500 92.193 237.750 M 49.250 232.745 L 58 233.078 58 241.500 L 58 249.922 49.250 250.255 L 40.500 250.589 49.750 250.794 L 59 251 59 241.500 L 59 232 49.750 232.206 L 40.500 232.411 49.250 232.745 M 248 253.705 C 244.567 256.775, 244.493 257.004, 244.159 265.694 C 243.872 273.154, 244.110 274.914, 245.668 276.838 C 248.080 279.817, 250.760 278.817, 251.524 274.653 C 251.842 272.919, 251.966 266.792, 251.801 261.037 L 251.500 250.575 248 253.705 M 83.349 263 C 83.349 267.675, 83.522 269.587, 83.732 267.250 C 83.943 264.913, 83.943 261.087, 83.732 258.750 C 83.522 256.413, 83.349 258.325, 83.349 263 M 92.336 269 C 92.336 273.125, 92.513 274.813, 92.728 272.750 C 92.944 270.688, 92.944 267.313, 92.728 265.250 C 92.513 263.188, 92.336 264.875, 92.336 269 M 111.320 268 C 111.320 271.575, 111.502 273.038, 111.723 271.250 C 111.945 269.462, 111.945 266.538, 111.723 264.750 C 111.502 262.962, 111.320 264.425, 111.320 268 M 460 285 L 460 293 469.500 293 L 479 293 479 285 L 479 277 469.500 277 L 460 277 460 285 M 67.030 282.765 C 67.014 283.460, 68.463 285.506, 70.250 287.311 C 72.037 289.116, 72.548 289.447, 71.384 288.046 C 70.220 286.646, 68.771 284.600, 68.164 283.500 C 67.557 282.400, 67.047 282.069, 67.030 282.765" stroke="none" fill="#068484" fill-rule="evenodd"/></svg>